<svg width="46" height="35" viewBox="0 0 46 35" fill="none" xmlns="http://www.w3.org/2000/svg">
<path d="M21.5 35L20.5227 15.5556L13.6818 13.6111H0V9.72222H11.7273L25.4091 0L27.95 2.96528L19.8386 8.75H25.4091H45.5V12L26.3864 15.5556L25.4091 35H21.5ZM9.77273 7.77778C8.69773 7.77778 7.77746 7.39699 7.01193 6.63542C6.2464 5.87384 5.86364 4.95833 5.86364 3.88889C5.86364 2.81944 6.2464 1.90394 7.01193 1.14236C7.77746 0.380787 8.69773 0 9.77273 0C10.8477 0 11.768 0.380787 12.5335 1.14236C13.2991 1.90394 13.6818 2.81944 13.6818 3.88889C13.6818 4.95833 13.2991 5.87384 12.5335 6.63542C11.768 7.39699 10.8477 7.77778 9.77273 7.77778Z" fill="#FFD60A"/>
</svg>
